<svg width="19" height="19" viewBox="0 0 19 19" fill="none" xmlns="http://www.w3.org/2000/svg">
<path d="M1.83682 13.5549C1.65207 13.5549 1.46768 13.4846 1.3266 13.3435C1.04478 13.0617 1.04478 12.6048 1.3266 12.323L12.6043 1.04535C12.8857 0.76353 13.3429 0.76353 13.6247 1.04535C13.9065 1.32716 13.9065 1.78398 13.6247 2.0658L2.34705 13.3435C2.20632 13.4842 2.02157 13.5549 1.83682 13.5549Z" fill="#2F4CDD"/>
<path d="M0.7224 18.752C0.672243 18.752 0.621365 18.7466 0.570487 18.7358C0.18078 18.6521 -0.0674775 18.2685 0.0162373 17.8788L1.13123 12.6816C1.21495 12.2919 1.60032 12.0444 1.98822 12.1274C2.37793 12.2111 2.62619 12.5946 2.54247 12.9843L1.42748 18.1815C1.35495 18.5203 1.05545 18.752 0.7224 18.752Z" fill="#2F4CDD"/>
<path d="M5.91885 17.6366C5.7341 17.6366 5.54972 17.5662 5.40863 17.4251C5.12681 17.1433 5.12681 16.6865 5.40863 16.4047L16.6863 5.12738C16.9678 4.84556 17.4249 4.84556 17.7068 5.12738C17.9886 5.40919 17.9886 5.86602 17.7068 6.14783L6.42944 17.4251C6.28835 17.5662 6.1036 17.6366 5.91885 17.6366Z" fill="#2F4CDD"/>
<path d="M0.72121 18.7517C0.388155 18.7517 0.0890198 18.5201 0.0161303 18.1812C-0.0672236 17.7915 0.180673 17.408 0.570379 17.3243L5.76755 16.2093C6.15762 16.1266 6.54119 16.3742 6.62454 16.7635C6.7079 17.1532 6.46 17.5368 6.07029 17.6205L0.873124 18.7355C0.822245 18.7467 0.771367 18.7517 0.72121 18.7517Z" fill="#2F4CDD"/>
<path d="M15.1553 8.40044C14.9706 8.40044 14.7858 8.33008 14.6451 8.18899L10.5629 4.10682C10.2811 3.825 10.2811 3.36818 10.5629 3.08636C10.8444 2.80455 11.3019 2.80455 11.5834 3.08636L15.6656 7.16854C15.9474 7.45035 15.9474 7.90718 15.6656 8.18899C15.5248 8.33008 15.3401 8.40044 15.1553 8.40044Z" fill="#2F4CDD"/>
<path d="M17.1971 6.36015C17.0123 6.36015 16.8276 6.28979 16.6865 6.1487C16.4047 5.86689 16.4047 5.41006 16.6865 5.12789C17.0881 4.72627 17.3093 4.18249 17.3093 3.59721C17.3093 3.01193 17.0881 2.46814 16.6865 2.06653C16.2845 1.66455 15.7407 1.44336 15.1554 1.44336C14.5702 1.44336 14.0264 1.66455 13.6248 2.06653C13.3433 2.34834 12.8865 2.3487 12.6039 2.06653C12.3221 1.78471 12.3221 1.32789 12.6039 1.04571C13.278 0.371304 14.1841 0 15.1554 0C16.1265 0 17.0329 0.371304 17.7069 1.04571C18.3813 1.71976 18.7526 2.62583 18.7526 3.59721C18.7526 4.56859 18.3813 5.47465 17.7069 6.1487C17.5666 6.28943 17.3818 6.36015 17.1971 6.36015Z" fill="#2F4CDD"/>
</svg>