<svg width="16" height="19" viewBox="0 0 16 19" fill="none" xmlns="http://www.w3.org/2000/svg">
<path d="M14.208 12.8745C13.1709 11.9875 12.1184 11.4502 11.094 12.3359L10.4824 12.8712C10.0348 13.2597 9.20274 15.0753 5.98562 11.3745C2.76917 7.67835 4.68323 7.10286 5.13143 6.71764L5.74645 6.18167C6.76545 5.29398 6.38089 4.1765 5.64595 3.02619L5.20244 2.32943C4.46415 1.1818 3.66021 0.428102 2.63853 1.31445L2.08648 1.79682C1.63494 2.12577 0.372741 3.19502 0.0665717 5.22632C-0.301903 7.66361 0.860468 10.4546 3.52354 13.517C6.18326 16.5807 8.78737 18.1196 11.2541 18.0928C13.3042 18.0707 14.5423 16.9706 14.9295 16.5707L15.4836 16.0876C16.5026 15.2019 15.8695 14.3002 14.8317 13.4112L14.208 12.8745Z" fill="#2F4CDD"/>
</svg>
