<svg width="18" height="18" viewBox="0 0 18 18" fill="none" xmlns="http://www.w3.org/2000/svg">
<path d="M17.8443 17.082L13.4691 12.7078C14.6427 11.3588 15.3533 9.59867 15.3533 7.67494C15.3533 3.44035 11.9082 0 7.67665 0C3.44112 0 0 3.44435 0 7.67494C0 11.9055 3.44511 15.3499 7.67665 15.3499C9.6008 15.3499 11.3613 14.6395 12.7106 13.4661L17.0858 17.8404C17.1896 17.9441 17.3293 18 17.4651 18C17.6008 18 17.7405 17.9481 17.8443 17.8404C18.0519 17.6328 18.0519 17.2896 17.8443 17.082ZM1.07385 7.67494C1.07385 4.03503 4.03593 1.07761 7.67265 1.07761C11.3134 1.07761 14.2715 4.03902 14.2715 7.67494C14.2715 11.3109 11.3134 14.2763 7.67265 14.2763C4.03593 14.2763 1.07385 11.3149 1.07385 7.67494Z" fill="#A4A4A4"/>
</svg>
